# Blender v2.80 (sub 75) OBJ File: 'cave_test_1.blend'
# www.blender.org
mtllib test_1.mtl
o Cube_Cube.001
v -1.000000 -1.000000 1.000000
v -1.000000 1.000000 -3.000000
v -1.000000 -1.000000 -1.000000
v -1.000000 -1.000000 -3.000000
v 1.000000 -1.000000 1.000000
v -1.000000 1.000000 -1.000000
v 1.000000 -1.000000 -1.000000
v 1.000000 -1.000000 -3.000000
v -1.000000 3.000000 -3.000000
v -1.000000 3.000000 -1.000000
v -1.000000 1.000000 1.000000
v -1.000000 3.000000 1.000000
v -0.681898 4.624269 -3.000000
v -1.000000 5.000000 -1.000000
v -1.000000 5.000000 1.000000
v 3.000000 -1.000000 1.000000
v 3.000000 -1.000000 -1.000000
v 3.000000 -1.000000 -3.000000
v 5.000000 -1.000000 1.000000
v 5.000000 -1.000000 -1.000000
v 5.000000 -1.000000 -3.000000
v 7.000000 -1.000000 1.000000
v 7.000000 -1.000000 -1.000000
v 7.000000 -1.000000 -3.000000
v 9.000000 -1.000000 1.000000
v 9.000000 -1.000000 -1.000000
v 9.000000 -1.000000 -3.000000
v 9.000000 3.000000 -1.000000
v 9.000000 1.000000 -1.000000
v 9.000000 1.000000 -3.000000
v 9.000000 3.000000 -3.000000
v 9.000000 3.000000 1.000000
v 9.000000 1.000000 1.000000
v 9.000000 5.000000 -1.000000
v 8.681898 4.624269 -3.000000
v 9.000000 5.000000 1.000000
v 1.000000 4.624269 -3.000000
v 1.000000 5.000000 -1.000000
v 1.000000 5.000000 1.000000
v 3.000000 4.624269 -3.000000
v 3.000000 5.000000 -1.000000
v 3.000000 5.000000 1.000000
v 5.000000 4.624269 -3.000000
v 5.000000 5.000000 -1.000000
v 5.000000 5.000000 1.000000
v 7.000000 4.624269 -3.000000
v 7.000000 5.000000 -1.000000
v 7.000000 5.000000 1.000000
v -1.000000 1.000000 -7.000000
v -1.000000 -1.000000 -7.000000
v 1.000000 -1.000000 -7.000000
v -0.499712 2.238770 -7.000000
v 0.879921 4.042704 -5.350817
v 3.000000 -1.000000 -7.000000
v 5.000000 -1.000000 -7.000000
v 7.000000 -1.000000 -7.000000
v 9.000000 -1.000000 -7.000000
v 9.000000 1.000000 -7.000000
v 8.499712 2.238770 -7.000000
v 7.120079 4.042704 -5.350817
v 2.127953 4.042704 -5.350817
v 3.375984 4.042704 -5.350817
v 4.624016 4.042704 -5.350817
v 5.872047 4.042704 -5.350817
v 7.000000 1.000000 -7.000000
v 6.699827 2.238770 -7.000000
v 1.000000 1.000000 -7.000000
v 1.300173 2.238770 -7.000000
v 3.000000 1.000000 -7.000000
v 3.100058 2.238770 -7.000000
v 5.000000 1.000000 -7.000000
v 4.899942 2.238770 -7.000000
vt 0.828482 0.091929
vt 0.919995 0.096294
vt 0.915916 0.187196
vt 0.825014 0.183116
vt 0.823979 0.364336
vt 0.733105 0.364340
vt 0.733148 0.273173
vt 0.823993 0.273635
vt 0.733513 0.181199
vt 0.833751 0.000096
vt 0.924972 0.005073
vt 0.914659 0.273605
vt 0.914706 0.364266
vt 0.735161 0.087759
vt 0.740301 0.011241
vt 0.914820 0.454959
vt 0.824084 0.455117
vt 0.733257 0.455281
vt 0.915022 0.545650
vt 0.824293 0.545902
vt 0.733466 0.546161
vt 0.915314 0.636329
vt 0.824600 0.636680
vt 0.733725 0.637077
vt 0.915701 0.726983
vt 0.825047 0.727390
vt 0.734070 0.728180
vt 0.826133 0.817978
vt 0.829334 0.908914
vt 0.736953 0.912673
vt 0.734667 0.819858
vt 0.916468 0.814351
vt 0.920303 0.904664
vt 0.924972 0.995027
vt 0.834634 0.999904
vt 0.742051 0.988737
vt 0.090842 0.275544
vt 0.091096 0.366290
vt 0.000350 0.366543
vt 0.000096 0.275798
vt 0.183216 0.289718
vt 0.183430 0.366031
vt 0.091349 0.457036
vt 0.000603 0.457289
vt 0.183685 0.456779
vt 0.091601 0.547784
vt 0.000854 0.548035
vt 0.183936 0.547529
vt 0.091851 0.638530
vt 0.001105 0.638781
vt 0.184186 0.638277
vt 0.092101 0.729277
vt 0.001355 0.729526
vt 0.184394 0.714590
vt 0.611994 0.989262
vt 0.551592 0.879177
vt 0.293620 0.473533
vt 0.293776 0.530166
vt 0.551531 0.455742
vt 0.551256 0.364913
vt 0.293929 0.586797
vt 0.294080 0.643426
vt 0.550890 0.274101
vt 0.552125 0.728112
vt 0.551965 0.637360
vt 0.550000 0.183384
vt 0.549116 0.122602
vt 0.293460 0.416901
vt 0.552020 0.818772
vt 0.609243 0.011275
vt 0.551764 0.546559
vt 0.293296 0.360271
vt 0.405135 0.705739
vt 0.404937 0.624071
vt 0.461186 0.637557
vt 0.461389 0.728307
vt 0.460137 0.274444
vt 0.460448 0.365211
vt 0.404265 0.379011
vt 0.404006 0.297334
vt 0.460722 0.455998
vt 0.404506 0.460699
vt 0.460966 0.546783
vt 0.404728 0.542389
vn 1.0000 0.0000 0.0000
vn 0.0000 1.0000 0.0000
vn 0.9924 -0.0871 0.0871
vn -1.0000 0.0000 0.0000
vn -0.9924 -0.0871 0.0871
vn 0.0000 -1.0000 0.0000
vn 0.0000 -0.9828 0.1846
vn -0.7550 -0.5475 0.3609
vn 0.0000 -0.9707 0.2401
vn 0.9854 -0.1522 0.0761
vn -0.9854 -0.1522 0.0761
vn 0.7550 -0.5475 0.3609
vn 0.0000 0.0000 1.0000
vn 0.0000 -0.6747 0.7381
usemtl None
s off
f 10/1/1 12/2/1 11/3/1 6/4/1
f 7/5/2 8/6/2 4/7/2 3/8/2
f 4/7/1 2/9/1 6/4/1 3/8/1
f 10/1/1 14/10/1 15/11/1 12/2/1
f 3/8/2 1/12/2 5/13/2 7/5/2
f 2/9/1 9/14/1 10/1/1 6/4/1
f 9/14/3 13/15/3 14/10/3 10/1/3
f 5/13/2 16/16/2 17/17/2 7/5/2
f 7/5/2 17/17/2 18/18/2 8/6/2
f 16/16/2 19/19/2 20/20/2 17/17/2
f 17/17/2 20/20/2 21/21/2 18/18/2
f 19/19/2 22/22/2 23/23/2 20/20/2
f 20/20/2 23/23/2 24/24/2 21/21/2
f 22/22/2 25/25/2 26/26/2 23/23/2
f 23/23/2 26/26/2 27/27/2 24/24/2
f 29/28/4 28/29/4 31/30/4 30/31/4
f 26/26/4 29/28/4 30/31/4 27/27/4
f 29/28/4 33/32/4 32/33/4 28/29/4
f 32/33/4 36/34/4 34/35/4 28/29/4
f 28/29/5 34/35/5 35/36/5 31/30/5
f 14/37/6 38/38/6 39/39/6 15/40/6
f 13/41/7 37/42/7 38/38/7 14/37/7
f 38/38/6 41/43/6 42/44/6 39/39/6
f 37/42/7 40/45/7 41/43/7 38/38/7
f 41/43/6 44/46/6 45/47/6 42/44/6
f 40/45/7 43/48/7 44/46/7 41/43/7
f 44/46/6 47/49/6 48/50/6 45/47/6
f 43/48/7 46/51/7 47/49/7 44/46/7
f 34/52/6 36/53/6 48/50/6 47/49/6
f 35/54/7 34/52/7 47/49/7 46/51/7
f 35/36/8 60/55/8 59/56/8 31/30/8
f 40/45/9 62/57/9 63/58/9 43/48/9
f 18/18/2 54/59/2 51/60/2 8/6/2
f 46/51/9 64/61/9 60/62/9 35/54/9
f 8/6/2 51/60/2 50/63/2 4/7/2
f 27/27/2 57/64/2 56/65/2 24/24/2
f 4/7/1 50/63/1 49/66/1 2/9/1
f 2/9/10 49/66/10 52/67/10 9/14/10
f 37/42/9 61/68/9 62/57/9 40/45/9
f 31/30/11 59/56/11 58/69/11 30/31/11
f 9/14/12 52/67/12 53/70/12 13/15/12
f 24/24/2 56/65/2 55/71/2 21/21/2
f 13/41/9 53/72/9 61/68/9 37/42/9
f 43/48/9 63/58/9 64/61/9 46/51/9
f 21/21/2 55/71/2 54/59/2 18/18/2
f 30/31/4 58/69/4 57/64/4 27/27/4
f 59/73/13 66/74/13 65/75/13 58/76/13
f 56/65/13 57/64/13 58/76/13 65/75/13
f 59/73/14 60/62/14 64/61/14 66/74/14
f 49/77/13 67/78/13 68/79/13 52/80/13
f 67/78/13 69/81/13 70/82/13 68/79/13
f 69/81/13 71/83/13 72/84/13 70/82/13
f 65/75/13 66/74/13 72/84/13 71/83/13
f 63/58/14 72/84/14 66/74/14 64/61/14
f 63/58/14 62/57/14 70/82/14 72/84/14
f 62/57/14 61/68/14 68/79/14 70/82/14
f 52/80/14 68/79/14 61/68/14 53/72/14
f 50/63/13 51/60/13 67/78/13 49/77/13
f 51/60/13 54/59/13 69/81/13 67/78/13
f 54/59/13 55/71/13 71/83/13 69/81/13
f 55/71/13 56/65/13 65/75/13 71/83/13
